%TF.GenerationSoftware,KiCad,Pcbnew,9.0.2+dfsg-1*%
%TF.CreationDate,2025-11-23T23:22:12+02:00*%
%TF.ProjectId,stm8s001j3-dev-board,73746d38-7330-4303-916a-332d6465762d,1*%
%TF.SameCoordinates,Original*%
%TF.FileFunction,Copper,L1,Top*%
%TF.FilePolarity,Positive*%
%FSLAX46Y46*%
G04 Gerber Fmt 4.6, Leading zero omitted, Abs format (unit mm)*
G04 Created by KiCad (PCBNEW 9.0.2+dfsg-1) date 2025-11-23 23:22:12*
%MOMM*%
%LPD*%
G01*
G04 APERTURE LIST*
G04 Aperture macros list*
%AMRoundRect*
0 Rectangle with rounded corners*
0 $1 Rounding radius*
0 $2 $3 $4 $5 $6 $7 $8 $9 X,Y pos of 4 corners*
0 Add a 4 corners polygon primitive as box body*
4,1,4,$2,$3,$4,$5,$6,$7,$8,$9,$2,$3,0*
0 Add four circle primitives for the rounded corners*
1,1,$1+$1,$2,$3*
1,1,$1+$1,$4,$5*
1,1,$1+$1,$6,$7*
1,1,$1+$1,$8,$9*
0 Add four rect primitives between the rounded corners*
20,1,$1+$1,$2,$3,$4,$5,0*
20,1,$1+$1,$4,$5,$6,$7,0*
20,1,$1+$1,$6,$7,$8,$9,0*
20,1,$1+$1,$8,$9,$2,$3,0*%
G04 Aperture macros list end*
%TA.AperFunction,SMDPad,CuDef*%
%ADD10RoundRect,0.225000X0.250000X-0.225000X0.250000X0.225000X-0.250000X0.225000X-0.250000X-0.225000X0*%
%TD*%
%TA.AperFunction,ComponentPad*%
%ADD11R,1.700000X1.700000*%
%TD*%
%TA.AperFunction,ComponentPad*%
%ADD12C,1.700000*%
%TD*%
%TA.AperFunction,SMDPad,CuDef*%
%ADD13RoundRect,0.150000X-0.725000X-0.150000X0.725000X-0.150000X0.725000X0.150000X-0.725000X0.150000X0*%
%TD*%
%TA.AperFunction,SMDPad,CuDef*%
%ADD14RoundRect,0.200000X0.275000X-0.200000X0.275000X0.200000X-0.275000X0.200000X-0.275000X-0.200000X0*%
%TD*%
%TA.AperFunction,SMDPad,CuDef*%
%ADD15RoundRect,0.200000X-0.275000X0.200000X-0.275000X-0.200000X0.275000X-0.200000X0.275000X0.200000X0*%
%TD*%
%TA.AperFunction,SMDPad,CuDef*%
%ADD16RoundRect,0.218750X-0.256250X0.218750X-0.256250X-0.218750X0.256250X-0.218750X0.256250X0.218750X0*%
%TD*%
%TA.AperFunction,Conductor*%
%ADD17C,0.200000*%
%TD*%
%TA.AperFunction,Conductor*%
%ADD18C,0.500000*%
%TD*%
G04 APERTURE END LIST*
D10*
%TO.P,C1,1*%
%TO.N,Net-(U1-VCAP)*%
X151200000Y-100350000D03*
%TO.P,C1,2*%
%TO.N,GND*%
X151200000Y-98800000D03*
%TD*%
D11*
%TO.P,J2,1,Pin_1*%
%TO.N,/SWIM*%
X148400000Y-98200000D03*
D12*
%TO.P,J2,2,Pin_2*%
%TO.N,GND*%
X148400000Y-100740000D03*
%TO.P,J2,3,Pin_3*%
%TO.N,+3V3*%
X148400000Y-103280000D03*
%TD*%
D13*
%TO.P,U1,1,PD6*%
%TO.N,/PD6*%
X153350000Y-97520000D03*
%TO.P,U1,2,VSS*%
%TO.N,GND*%
X153350000Y-98790000D03*
%TO.P,U1,3,VCAP*%
%TO.N,Net-(U1-VCAP)*%
X153350000Y-100060000D03*
%TO.P,U1,4,VDD*%
%TO.N,+3V3*%
X153350000Y-101330000D03*
%TO.P,U1,5,PB5*%
%TO.N,/SDA*%
X158500000Y-101330000D03*
%TO.P,U1,6,PB4*%
%TO.N,/SCL*%
X158500000Y-100060000D03*
%TO.P,U1,7,PC5*%
%TO.N,/PD5*%
X158500000Y-98790000D03*
%TO.P,U1,8,PD5*%
%TO.N,/SWIM*%
X158500000Y-97520000D03*
%TD*%
D14*
%TO.P,R2,1*%
%TO.N,+3V3*%
X156500000Y-105125000D03*
%TO.P,R2,2*%
%TO.N,/SCL*%
X156500000Y-103475000D03*
%TD*%
D15*
%TO.P,R3,1*%
%TO.N,+3V3*%
X153300000Y-103475000D03*
%TO.P,R3,2*%
%TO.N,Net-(D1-A)*%
X153300000Y-105125000D03*
%TD*%
D11*
%TO.P,J1,1,Pin_1*%
%TO.N,/PD6*%
X162000000Y-96850000D03*
D12*
%TO.P,J1,2,Pin_2*%
%TO.N,/PD5*%
X162000000Y-99390000D03*
%TO.P,J1,3,Pin_3*%
%TO.N,/SCL*%
X162000000Y-101930000D03*
%TO.P,J1,4,Pin_4*%
%TO.N,/SDA*%
X162000000Y-104470000D03*
%TD*%
D16*
%TO.P,D1,1,K*%
%TO.N,GND*%
X151200000Y-103512500D03*
%TO.P,D1,2,A*%
%TO.N,Net-(D1-A)*%
X151200000Y-105087500D03*
%TD*%
D14*
%TO.P,R1,1*%
%TO.N,+3V3*%
X158500000Y-105125000D03*
%TO.P,R1,2*%
%TO.N,/SDA*%
X158500000Y-103475000D03*
%TD*%
D17*
%TO.N,Net-(U1-VCAP)*%
X151490000Y-100060000D02*
X151200000Y-100350000D01*
X153350000Y-100060000D02*
X151490000Y-100060000D01*
%TO.N,/PD6*%
X162000000Y-96850000D02*
X160661000Y-98189000D01*
X154019000Y-98189000D02*
X153350000Y-97520000D01*
X160661000Y-98189000D02*
X154019000Y-98189000D01*
%TO.N,/SDA*%
X162000000Y-104470000D02*
X158860000Y-101330000D01*
X158500000Y-103475000D02*
X158500000Y-101330000D01*
X158860000Y-101330000D02*
X158500000Y-101330000D01*
%TO.N,/SCL*%
X158040000Y-100060000D02*
X158500000Y-100060000D01*
X156500000Y-101600000D02*
X158040000Y-100060000D01*
X162000000Y-101930000D02*
X160130000Y-100060000D01*
X160130000Y-100060000D02*
X158500000Y-100060000D01*
X156500000Y-103475000D02*
X156500000Y-101600000D01*
%TO.N,/PD5*%
X160790000Y-99390000D02*
X160190000Y-98790000D01*
X160190000Y-98790000D02*
X158500000Y-98790000D01*
X162000000Y-99390000D02*
X160790000Y-99390000D01*
%TO.N,/SWIM*%
X148400000Y-98200000D02*
X149681000Y-96919000D01*
X157899000Y-96919000D02*
X158500000Y-97520000D01*
X149681000Y-96919000D02*
X157899000Y-96919000D01*
D18*
%TO.N,Net-(D1-A)*%
X153300000Y-105125000D02*
X151237500Y-105125000D01*
D17*
X151237500Y-105125000D02*
X151200000Y-105087500D01*
%TO.N,+3V3*%
X156500000Y-104900000D02*
X156500000Y-105125000D01*
D18*
X152280000Y-102400000D02*
X154000000Y-102400000D01*
X153350000Y-101330000D02*
X152280000Y-102400000D01*
D17*
X153350000Y-103475000D02*
X153350000Y-103470000D01*
D18*
X148400000Y-103280000D02*
X149280000Y-102400000D01*
D17*
X152280000Y-102400000D02*
X152000000Y-102400000D01*
D18*
X152000000Y-102400000D02*
X152375000Y-102400000D01*
X154000000Y-102400000D02*
X156500000Y-104900000D01*
X153350000Y-103470000D02*
X152280000Y-102400000D01*
X149280000Y-102400000D02*
X152000000Y-102400000D01*
X156500000Y-105125000D02*
X158500000Y-105125000D01*
%TD*%
%TA.AperFunction,Conductor*%
%TO.N,GND*%
G36*
X163742539Y-95080185D02*
G01*
X163788294Y-95132989D01*
X163799500Y-95184500D01*
X163799500Y-106135500D01*
X163779815Y-106202539D01*
X163727011Y-106248294D01*
X163675500Y-106259500D01*
X146674500Y-106259500D01*
X146607461Y-106239815D01*
X146561706Y-106187011D01*
X146550500Y-106135500D01*
X146550500Y-103176530D01*
X147349500Y-103176530D01*
X147349500Y-103383469D01*
X147389868Y-103586412D01*
X147389870Y-103586420D01*
X147469058Y-103777596D01*
X147584024Y-103949657D01*
X147730342Y-104095975D01*
X147730345Y-104095977D01*
X147902402Y-104210941D01*
X148093580Y-104290130D01*
X148296530Y-104330499D01*
X148296534Y-104330500D01*
X148296535Y-104330500D01*
X148503466Y-104330500D01*
X148503467Y-104330499D01*
X148706420Y-104290130D01*
X148897598Y-104210941D01*
X149069655Y-104095977D01*
X149215977Y-103949655D01*
X149307620Y-103812500D01*
X150429880Y-103812500D01*
X150435010Y-103855223D01*
X150435010Y-103855224D01*
X150487325Y-103987886D01*
X150573489Y-104101510D01*
X150687113Y-104187674D01*
X150808765Y-104235647D01*
X150863909Y-104278553D01*
X150887102Y-104344461D01*
X150870982Y-104412445D01*
X150820665Y-104460922D01*
X150819571Y-104461486D01*
X150694250Y-104525341D01*
X150694243Y-104525346D01*
X150600346Y-104619243D01*
X150600343Y-104619248D01*
X150540047Y-104737582D01*
X150524500Y-104835748D01*
X150524500Y-105339251D01*
X150540047Y-105437417D01*
X150559364Y-105475329D01*
X150600342Y-105555751D01*
X150600344Y-105555753D01*
X150600346Y-105555756D01*
X150694243Y-105649653D01*
X150694245Y-105649654D01*
X150694249Y-105649658D01*
X150812580Y-105709951D01*
X150812581Y-105709951D01*
X150812583Y-105709952D01*
X150812582Y-105709952D01*
X150910749Y-105725500D01*
X150910754Y-105725500D01*
X151489251Y-105725500D01*
X151587417Y-105709952D01*
X151587418Y-105709951D01*
X151587420Y-105709951D01*
X151705751Y-105649658D01*
X151743589Y-105611820D01*
X151804912Y-105578334D01*
X151831271Y-105575500D01*
X152657746Y-105575500D01*
X152724785Y-105595185D01*
X152745428Y-105611820D01*
X152786653Y-105653046D01*
X152786655Y-105653047D01*
X152786658Y-105653050D01*
X152898332Y-105709951D01*
X152899698Y-105710647D01*
X152993475Y-105725499D01*
X152993481Y-105725500D01*
X153606518Y-105725499D01*
X153700304Y-105710646D01*
X153813342Y-105653050D01*
X153903050Y-105563342D01*
X153960646Y-105450304D01*
X153960646Y-105450302D01*
X153960647Y-105450301D01*
X153975499Y-105356524D01*
X153975500Y-105356519D01*
X153975499Y-104893482D01*
X153960646Y-104799696D01*
X153903050Y-104686658D01*
X153903046Y-104686654D01*
X153903045Y-104686652D01*
X153813347Y-104596954D01*
X153813344Y-104596952D01*
X153813342Y-104596950D01*
X153736517Y-104557805D01*
X153700301Y-104539352D01*
X153606524Y-104524500D01*
X152993482Y-104524500D01*
X152912519Y-104537323D01*
X152899696Y-104539354D01*
X152786658Y-104596950D01*
X152786657Y-104596951D01*
X152786653Y-104596953D01*
X152745428Y-104638180D01*
X152684105Y-104671666D01*
X152657746Y-104674500D01*
X151902981Y-104674500D01*
X151835942Y-104654815D01*
X151802660Y-104623381D01*
X151799656Y-104619246D01*
X151705756Y-104525346D01*
X151705747Y-104525339D01*
X151580429Y-104461486D01*
X151529633Y-104413512D01*
X151512838Y-104345691D01*
X151535376Y-104279556D01*
X151590091Y-104236105D01*
X151591235Y-104235647D01*
X151712885Y-104187675D01*
X151826510Y-104101510D01*
X151912674Y-103987886D01*
X151964989Y-103855224D01*
X151964989Y-103855223D01*
X151970120Y-103812500D01*
X150429880Y-103812500D01*
X149307620Y-103812500D01*
X149330941Y-103777598D01*
X149410130Y-103586420D01*
X149450500Y-103383465D01*
X149450500Y-103176535D01*
X149415125Y-102998691D01*
X149421352Y-102929100D01*
X149464215Y-102873922D01*
X149530105Y-102850678D01*
X149536742Y-102850500D01*
X150380274Y-102850500D01*
X150447313Y-102870185D01*
X150493068Y-102922989D01*
X150503012Y-102992147D01*
X150490417Y-103029216D01*
X150490437Y-103029224D01*
X150490279Y-103029624D01*
X150488360Y-103035273D01*
X150487327Y-103037109D01*
X150435010Y-103169775D01*
X150435010Y-103169776D01*
X150429879Y-103212500D01*
X151970120Y-103212500D01*
X151964989Y-103169776D01*
X151964989Y-103169775D01*
X151912672Y-103037109D01*
X151911640Y-103035273D01*
X151911205Y-103033389D01*
X151909563Y-103029224D01*
X151909677Y-103029179D01*
X151906932Y-103026011D01*
X151902669Y-102996369D01*
X151895942Y-102967190D01*
X151897749Y-102962152D01*
X151896988Y-102956853D01*
X151909429Y-102929609D01*
X151919544Y-102901428D01*
X151923788Y-102898167D01*
X151926013Y-102893297D01*
X151951205Y-102877106D01*
X151974953Y-102858865D01*
X151981491Y-102857643D01*
X151984791Y-102855523D01*
X152019726Y-102850500D01*
X152042035Y-102850500D01*
X152109074Y-102870185D01*
X152129716Y-102886819D01*
X152588181Y-103345284D01*
X152621666Y-103406607D01*
X152624500Y-103432965D01*
X152624500Y-103706517D01*
X152627344Y-103724471D01*
X152639354Y-103800304D01*
X152696950Y-103913342D01*
X152696952Y-103913344D01*
X152696954Y-103913347D01*
X152786652Y-104003045D01*
X152786654Y-104003046D01*
X152786658Y-104003050D01*
X152899694Y-104060645D01*
X152899698Y-104060647D01*
X152993475Y-104075499D01*
X152993481Y-104075500D01*
X153606518Y-104075499D01*
X153700304Y-104060646D01*
X153813342Y-104003050D01*
X153903050Y-103913342D01*
X153960646Y-103800304D01*
X153960646Y-103800302D01*
X153960647Y-103800301D01*
X153975499Y-103706524D01*
X153975500Y-103706519D01*
X153975499Y-103311963D01*
X153995183Y-103244925D01*
X154047987Y-103199170D01*
X154117146Y-103189226D01*
X154180701Y-103218251D01*
X154187180Y-103224283D01*
X155788181Y-104825284D01*
X155821666Y-104886607D01*
X155824500Y-104912965D01*
X155824500Y-105356517D01*
X155831536Y-105400941D01*
X155839354Y-105450304D01*
X155896950Y-105563342D01*
X155896952Y-105563344D01*
X155896954Y-105563347D01*
X155986652Y-105653045D01*
X155986654Y-105653046D01*
X155986658Y-105653050D01*
X156098332Y-105709951D01*
X156099698Y-105710647D01*
X156193475Y-105725499D01*
X156193481Y-105725500D01*
X156806518Y-105725499D01*
X156900304Y-105710646D01*
X157013342Y-105653050D01*
X157054572Y-105611820D01*
X157115895Y-105578334D01*
X157142254Y-105575500D01*
X157857746Y-105575500D01*
X157924785Y-105595185D01*
X157945428Y-105611820D01*
X157986653Y-105653046D01*
X157986655Y-105653047D01*
X157986658Y-105653050D01*
X158098332Y-105709951D01*
X158099698Y-105710647D01*
X158193475Y-105725499D01*
X158193481Y-105725500D01*
X158806518Y-105725499D01*
X158900304Y-105710646D01*
X159013342Y-105653050D01*
X159103050Y-105563342D01*
X159160646Y-105450304D01*
X159160646Y-105450302D01*
X159160647Y-105450301D01*
X159175499Y-105356524D01*
X159175500Y-105356519D01*
X159175499Y-104893482D01*
X159160646Y-104799696D01*
X159103050Y-104686658D01*
X159103046Y-104686654D01*
X159103045Y-104686652D01*
X159013347Y-104596954D01*
X159013344Y-104596952D01*
X159013342Y-104596950D01*
X158936517Y-104557805D01*
X158900301Y-104539352D01*
X158806524Y-104524500D01*
X158193482Y-104524500D01*
X158112519Y-104537323D01*
X158099696Y-104539354D01*
X157986658Y-104596950D01*
X157986657Y-104596951D01*
X157986653Y-104596953D01*
X157945428Y-104638180D01*
X157884105Y-104671666D01*
X157857746Y-104674500D01*
X157142254Y-104674500D01*
X157075215Y-104654815D01*
X157054572Y-104638180D01*
X157013346Y-104596953D01*
X157013344Y-104596952D01*
X157013342Y-104596950D01*
X156936517Y-104557805D01*
X156900301Y-104539352D01*
X156806526Y-104524500D01*
X156803371Y-104524252D01*
X156802242Y-104523821D01*
X156801707Y-104523737D01*
X156801724Y-104523624D01*
X156738083Y-104499369D01*
X156725418Y-104488315D01*
X156524283Y-104287180D01*
X156490798Y-104225857D01*
X156495782Y-104156165D01*
X156537654Y-104100232D01*
X156603118Y-104075815D01*
X156611964Y-104075499D01*
X156806517Y-104075499D01*
X156806518Y-104075499D01*
X156900304Y-104060646D01*
X157013342Y-104003050D01*
X157103050Y-103913342D01*
X157160646Y-103800304D01*
X157160646Y-103800302D01*
X157160647Y-103800301D01*
X157175499Y-103706524D01*
X157175500Y-103706519D01*
X157175499Y-103243482D01*
X157160646Y-103149696D01*
X157103050Y-103036658D01*
X157103046Y-103036654D01*
X157103045Y-103036652D01*
X157013347Y-102946954D01*
X157013344Y-102946952D01*
X157013342Y-102946950D01*
X156936517Y-102907805D01*
X156900301Y-102889352D01*
X156891020Y-102886337D01*
X156891836Y-102883825D01*
X156841963Y-102860180D01*
X156805034Y-102800866D01*
X156800500Y-102767640D01*
X156800500Y-101775832D01*
X156820185Y-101708793D01*
X156836815Y-101688155D01*
X157212819Y-101312150D01*
X157274142Y-101278666D01*
X157343834Y-101283650D01*
X157399767Y-101325522D01*
X157424184Y-101390986D01*
X157424500Y-101399832D01*
X157424500Y-101513260D01*
X157434426Y-101581391D01*
X157485803Y-101686485D01*
X157568514Y-101769196D01*
X157568515Y-101769196D01*
X157568517Y-101769198D01*
X157673607Y-101820573D01*
X157707673Y-101825536D01*
X157741739Y-101830500D01*
X157741740Y-101830500D01*
X158075500Y-101830500D01*
X158142539Y-101850185D01*
X158188294Y-101902989D01*
X158199500Y-101954500D01*
X158199500Y-102767640D01*
X158179815Y-102834679D01*
X158127011Y-102880434D01*
X158108842Y-102885911D01*
X158108981Y-102886337D01*
X158099699Y-102889352D01*
X158044297Y-102917580D01*
X157986658Y-102946950D01*
X157986657Y-102946951D01*
X157986652Y-102946954D01*
X157896954Y-103036652D01*
X157896951Y-103036657D01*
X157896950Y-103036658D01*
X157877751Y-103074337D01*
X157839352Y-103149698D01*
X157824500Y-103243475D01*
X157824500Y-103706517D01*
X157827344Y-103724471D01*
X157839354Y-103800304D01*
X157896950Y-103913342D01*
X157896952Y-103913344D01*
X157896954Y-103913347D01*
X157986652Y-104003045D01*
X157986654Y-104003046D01*
X157986658Y-104003050D01*
X158099694Y-104060645D01*
X158099698Y-104060647D01*
X158193475Y-104075499D01*
X158193481Y-104075500D01*
X158806518Y-104075499D01*
X158900304Y-104060646D01*
X159013342Y-104003050D01*
X159103050Y-103913342D01*
X159160646Y-103800304D01*
X159160646Y-103800302D01*
X159160647Y-103800301D01*
X159175499Y-103706524D01*
X159175500Y-103706519D01*
X159175499Y-103243482D01*
X159160646Y-103149696D01*
X159103050Y-103036658D01*
X159103046Y-103036654D01*
X159103045Y-103036652D01*
X159013347Y-102946954D01*
X159013344Y-102946952D01*
X159013342Y-102946950D01*
X158936517Y-102907805D01*
X158900301Y-102889352D01*
X158891020Y-102886337D01*
X158891836Y-102883825D01*
X158841963Y-102860180D01*
X158805034Y-102800866D01*
X158800500Y-102767640D01*
X158800500Y-101994833D01*
X158820185Y-101927794D01*
X158872989Y-101882039D01*
X158942147Y-101872095D01*
X159005703Y-101901120D01*
X159012181Y-101907152D01*
X161012924Y-103907895D01*
X161046409Y-103969218D01*
X161041425Y-104038910D01*
X161039804Y-104043029D01*
X160989870Y-104163579D01*
X160989868Y-104163587D01*
X160949500Y-104366530D01*
X160949500Y-104573469D01*
X160989868Y-104776412D01*
X160989870Y-104776420D01*
X161069058Y-104967596D01*
X161184024Y-105139657D01*
X161330342Y-105285975D01*
X161330345Y-105285977D01*
X161502402Y-105400941D01*
X161693580Y-105480130D01*
X161896530Y-105520499D01*
X161896534Y-105520500D01*
X161896535Y-105520500D01*
X162103466Y-105520500D01*
X162103467Y-105520499D01*
X162306420Y-105480130D01*
X162497598Y-105400941D01*
X162669655Y-105285977D01*
X162815977Y-105139655D01*
X162930941Y-104967598D01*
X163010130Y-104776420D01*
X163050500Y-104573465D01*
X163050500Y-104366535D01*
X163010130Y-104163580D01*
X162930941Y-103972402D01*
X162815977Y-103800345D01*
X162815975Y-103800342D01*
X162669657Y-103654024D01*
X162502616Y-103542412D01*
X162497598Y-103539059D01*
X162445002Y-103517273D01*
X162306420Y-103459870D01*
X162306412Y-103459868D01*
X162103469Y-103419500D01*
X162103465Y-103419500D01*
X161896535Y-103419500D01*
X161896530Y-103419500D01*
X161693587Y-103459868D01*
X161693579Y-103459870D01*
X161573029Y-103509804D01*
X161503559Y-103517273D01*
X161441080Y-103485998D01*
X161437895Y-103482924D01*
X159605851Y-101650880D01*
X159572366Y-101589557D01*
X159570828Y-101545324D01*
X159575500Y-101513260D01*
X159575500Y-101146740D01*
X159574532Y-101140099D01*
X159565573Y-101078608D01*
X159565573Y-101078607D01*
X159514198Y-100973517D01*
X159514196Y-100973515D01*
X159514196Y-100973514D01*
X159431485Y-100890803D01*
X159326391Y-100839426D01*
X159258261Y-100829500D01*
X159258260Y-100829500D01*
X157994833Y-100829500D01*
X157973587Y-100823261D01*
X157951499Y-100821682D01*
X157940715Y-100813609D01*
X157927794Y-100809815D01*
X157913294Y-100793081D01*
X157895566Y-100779810D01*
X157890858Y-100767189D01*
X157882039Y-100757011D01*
X157878887Y-100735093D01*
X157871149Y-100714346D01*
X157874011Y-100701185D01*
X157872095Y-100687853D01*
X157881294Y-100667709D01*
X157886001Y-100646073D01*
X157899269Y-100628347D01*
X157901120Y-100624297D01*
X157907152Y-100617819D01*
X157928152Y-100596819D01*
X157989475Y-100563334D01*
X158015833Y-100560500D01*
X159258261Y-100560500D01*
X159280971Y-100557191D01*
X159326393Y-100550573D01*
X159431483Y-100499198D01*
X159514198Y-100416483D01*
X159514200Y-100416477D01*
X159517077Y-100412450D01*
X159572051Y-100369326D01*
X159617997Y-100360500D01*
X159954167Y-100360500D01*
X160021206Y-100380185D01*
X160041848Y-100396819D01*
X161012924Y-101367895D01*
X161046409Y-101429218D01*
X161041425Y-101498910D01*
X161039804Y-101503029D01*
X160989870Y-101623579D01*
X160989868Y-101623587D01*
X160949500Y-101826530D01*
X160949500Y-102033469D01*
X160989868Y-102236412D01*
X160989870Y-102236420D01*
X161069058Y-102427596D01*
X161184024Y-102599657D01*
X161330342Y-102745975D01*
X161330345Y-102745977D01*
X161502402Y-102860941D01*
X161693580Y-102940130D01*
X161829621Y-102967190D01*
X161896530Y-102980499D01*
X161896534Y-102980500D01*
X161896535Y-102980500D01*
X162103466Y-102980500D01*
X162103467Y-102980499D01*
X162306420Y-102940130D01*
X162497598Y-102860941D01*
X162669655Y-102745977D01*
X162815977Y-102599655D01*
X162930941Y-102427598D01*
X163010130Y-102236420D01*
X163050500Y-102033465D01*
X163050500Y-101826535D01*
X163010130Y-101623580D01*
X162930941Y-101432402D01*
X162815977Y-101260345D01*
X162815975Y-101260342D01*
X162669657Y-101114024D01*
X162502616Y-101002412D01*
X162497598Y-100999059D01*
X162462978Y-100984719D01*
X162306420Y-100919870D01*
X162306412Y-100919868D01*
X162103469Y-100879500D01*
X162103465Y-100879500D01*
X161896535Y-100879500D01*
X161896530Y-100879500D01*
X161693587Y-100919868D01*
X161693579Y-100919870D01*
X161573029Y-100969804D01*
X161503559Y-100977273D01*
X161441080Y-100945998D01*
X161437895Y-100942924D01*
X160314512Y-99819541D01*
X160314511Y-99819540D01*
X160295574Y-99808607D01*
X160295574Y-99808605D01*
X160295571Y-99808605D01*
X160245994Y-99779981D01*
X160245991Y-99779979D01*
X160197727Y-99767047D01*
X160169562Y-99759500D01*
X160169560Y-99759500D01*
X159617997Y-99759500D01*
X159550958Y-99739815D01*
X159517077Y-99707550D01*
X159514194Y-99703512D01*
X159431485Y-99620803D01*
X159326391Y-99569426D01*
X159258261Y-99559500D01*
X159258260Y-99559500D01*
X157741740Y-99559500D01*
X157741739Y-99559500D01*
X157673608Y-99569426D01*
X157568514Y-99620803D01*
X157485803Y-99703514D01*
X157434427Y-99808607D01*
X157424500Y-99876739D01*
X157424500Y-100199166D01*
X157404815Y-100266205D01*
X157388181Y-100286847D01*
X156315489Y-101359540D01*
X156259541Y-101415487D01*
X156259535Y-101415495D01*
X156219982Y-101484004D01*
X156219979Y-101484009D01*
X156206326Y-101534962D01*
X156203552Y-101545318D01*
X156199500Y-101560439D01*
X156199500Y-102767640D01*
X156179815Y-102834679D01*
X156127011Y-102880434D01*
X156108842Y-102885911D01*
X156108981Y-102886337D01*
X156099699Y-102889352D01*
X156044297Y-102917580D01*
X155986658Y-102946950D01*
X155986657Y-102946951D01*
X155986652Y-102946954D01*
X155896954Y-103036652D01*
X155896951Y-103036657D01*
X155896950Y-103036658D01*
X155877751Y-103074337D01*
X155839352Y-103149698D01*
X155824500Y-103243475D01*
X155824500Y-103288035D01*
X155804815Y-103355074D01*
X155752011Y-103400829D01*
X155682853Y-103410773D01*
X155619297Y-103381748D01*
X155612819Y-103375716D01*
X154276616Y-102039513D01*
X154276610Y-102039508D01*
X154227064Y-102010903D01*
X154178848Y-101960336D01*
X154165626Y-101891729D01*
X154191594Y-101826864D01*
X154234602Y-101792116D01*
X154281483Y-101769198D01*
X154364198Y-101686483D01*
X154415573Y-101581393D01*
X154425500Y-101513260D01*
X154425500Y-101146740D01*
X154424532Y-101140099D01*
X154415573Y-101078608D01*
X154415573Y-101078607D01*
X154364198Y-100973517D01*
X154364196Y-100973515D01*
X154364196Y-100973514D01*
X154281485Y-100890803D01*
X154176391Y-100839426D01*
X154108261Y-100829500D01*
X154108260Y-100829500D01*
X152591740Y-100829500D01*
X152591739Y-100829500D01*
X152523608Y-100839426D01*
X152418514Y-100890803D01*
X152335803Y-100973514D01*
X152284426Y-101078608D01*
X152274500Y-101146739D01*
X152274500Y-101513260D01*
X152284426Y-101581392D01*
X152284426Y-101581393D01*
X152303686Y-101620790D01*
X152307678Y-101644174D01*
X152315969Y-101666403D01*
X152313449Y-101677982D01*
X152315444Y-101689663D01*
X152306160Y-101711493D01*
X152301117Y-101734676D01*
X152289965Y-101749572D01*
X152288100Y-101753960D01*
X152279967Y-101762930D01*
X152129714Y-101913182D01*
X152068393Y-101946666D01*
X152042035Y-101949500D01*
X149220691Y-101949500D01*
X149130325Y-101973713D01*
X149130324Y-101973712D01*
X149106116Y-101980199D01*
X149106113Y-101980200D01*
X149003386Y-102039511D01*
X149003383Y-102039513D01*
X148808842Y-102234054D01*
X148747519Y-102267539D01*
X148696970Y-102267990D01*
X148503468Y-102229500D01*
X148503465Y-102229500D01*
X148296535Y-102229500D01*
X148296530Y-102229500D01*
X148093587Y-102269868D01*
X148093579Y-102269870D01*
X147902403Y-102349058D01*
X147730342Y-102464024D01*
X147584024Y-102610342D01*
X147469058Y-102782403D01*
X147389870Y-102973579D01*
X147389868Y-102973587D01*
X147349500Y-103176530D01*
X146550500Y-103176530D01*
X146550500Y-100649493D01*
X147250000Y-100649493D01*
X147250000Y-100830506D01*
X147278317Y-101009293D01*
X147334251Y-101181444D01*
X147334252Y-101181447D01*
X147401772Y-101313961D01*
X147902094Y-100813641D01*
X147934075Y-100932993D01*
X147999901Y-101047007D01*
X148092993Y-101140099D01*
X148207007Y-101205925D01*
X148326357Y-101237905D01*
X147826036Y-101738225D01*
X147958555Y-101805748D01*
X148130706Y-101861682D01*
X148309494Y-101890000D01*
X148490506Y-101890000D01*
X148669293Y-101861682D01*
X148841441Y-101805749D01*
X148973962Y-101738225D01*
X148473642Y-101237905D01*
X148592993Y-101205925D01*
X148707007Y-101140099D01*
X148800099Y-101047007D01*
X148865925Y-100932993D01*
X148897905Y-100813641D01*
X149398225Y-101313962D01*
X149465749Y-101181441D01*
X149521682Y-101009293D01*
X149550000Y-100830506D01*
X149550000Y-100649493D01*
X149521682Y-100470706D01*
X149465748Y-100298555D01*
X149398225Y-100166036D01*
X148897905Y-100666357D01*
X148865925Y-100547007D01*
X148800099Y-100432993D01*
X148707007Y-100339901D01*
X148592993Y-100274075D01*
X148473642Y-100242094D01*
X148973962Y-99741773D01*
X148841447Y-99674252D01*
X148841444Y-99674251D01*
X148669293Y-99618317D01*
X148490506Y-99590000D01*
X148309494Y-99590000D01*
X148130706Y-99618317D01*
X147958555Y-99674251D01*
X147958552Y-99674252D01*
X147826037Y-99741773D01*
X148326358Y-100242094D01*
X148207007Y-100274075D01*
X148092993Y-100339901D01*
X147999901Y-100432993D01*
X147934075Y-100547007D01*
X147902094Y-100666357D01*
X147401773Y-100166037D01*
X147334252Y-100298552D01*
X147334251Y-100298555D01*
X147278317Y-100470706D01*
X147250000Y-100649493D01*
X146550500Y-100649493D01*
X146550500Y-97330247D01*
X147349500Y-97330247D01*
X147349500Y-99069752D01*
X147361131Y-99128229D01*
X147361132Y-99128230D01*
X147405447Y-99194552D01*
X147471769Y-99238867D01*
X147471770Y-99238868D01*
X147530247Y-99250499D01*
X147530250Y-99250500D01*
X147530252Y-99250500D01*
X149269750Y-99250500D01*
X149269751Y-99250499D01*
X149284568Y-99247552D01*
X149328229Y-99238868D01*
X149328229Y-99238867D01*
X149328231Y-99238867D01*
X149394552Y-99194552D01*
X149438867Y-99128231D01*
X149438867Y-99128229D01*
X149438868Y-99128229D01*
X149444483Y-99100000D01*
X150429071Y-99100000D01*
X150435131Y-99150467D01*
X150435131Y-99150468D01*
X150488077Y-99284729D01*
X150575278Y-99399721D01*
X150690270Y-99486922D01*
X150758334Y-99513763D01*
X150813478Y-99556669D01*
X150836671Y-99622577D01*
X150820551Y-99690561D01*
X150770234Y-99739038D01*
X150769140Y-99739602D01*
X150696781Y-99776471D01*
X150696774Y-99776476D01*
X150601476Y-99871774D01*
X150601473Y-99871778D01*
X150540279Y-99991878D01*
X150524500Y-100091506D01*
X150524500Y-100608493D01*
X150540279Y-100708121D01*
X150540280Y-100708124D01*
X150540281Y-100708126D01*
X150601472Y-100828220D01*
X150601473Y-100828221D01*
X150601476Y-100828225D01*
X150696774Y-100923523D01*
X150696778Y-100923526D01*
X150696780Y-100923528D01*
X150816874Y-100984719D01*
X150816876Y-100984719D01*
X150816878Y-100984720D01*
X150916507Y-101000500D01*
X150916512Y-101000500D01*
X151483493Y-101000500D01*
X151583121Y-100984720D01*
X151583121Y-100984719D01*
X151583126Y-100984719D01*
X151703220Y-100923528D01*
X151798528Y-100828220D01*
X151859719Y-100708126D01*
X151859720Y-100708121D01*
X151866613Y-100664603D01*
X151896542Y-100601468D01*
X151955853Y-100564536D01*
X151989086Y-100560000D01*
X152580358Y-100560000D01*
X152589326Y-100560325D01*
X152591739Y-100560500D01*
X152591740Y-100560500D01*
X154108261Y-100560500D01*
X154130971Y-100557191D01*
X154176393Y-100550573D01*
X154281483Y-100499198D01*
X154364198Y-100416483D01*
X154415573Y-100311393D01*
X154425500Y-100243260D01*
X154425500Y-99876740D01*
X154424776Y-99871774D01*
X154415573Y-99808607D01*
X154399863Y-99776471D01*
X154364198Y-99703517D01*
X154364196Y-99703515D01*
X154364196Y-99703514D01*
X154281485Y-99620803D01*
X154218793Y-99590155D01*
X154167210Y-99543027D01*
X154149296Y-99475493D01*
X154170737Y-99408994D01*
X154224726Y-99364644D01*
X154232300Y-99361712D01*
X154287643Y-99342347D01*
X154287645Y-99342346D01*
X154396792Y-99261792D01*
X154477346Y-99152644D01*
X154499266Y-99090000D01*
X152480000Y-99090000D01*
X151650000Y-99090000D01*
X151650000Y-99100000D01*
X150429071Y-99100000D01*
X149444483Y-99100000D01*
X149450499Y-99069752D01*
X149450500Y-99069750D01*
X149450500Y-98500000D01*
X150429070Y-98500000D01*
X150900000Y-98500000D01*
X150900000Y-98051068D01*
X150899999Y-98051068D01*
X150824532Y-98060131D01*
X150824531Y-98060131D01*
X150690270Y-98113077D01*
X150575278Y-98200278D01*
X150488077Y-98315270D01*
X150435131Y-98449531D01*
X150435131Y-98449532D01*
X150429070Y-98500000D01*
X149450500Y-98500000D01*
X149450500Y-97625833D01*
X149470185Y-97558794D01*
X149486819Y-97538152D01*
X149769152Y-97255819D01*
X149830475Y-97222334D01*
X149856833Y-97219500D01*
X151376000Y-97219500D01*
X151443039Y-97239185D01*
X151488794Y-97291989D01*
X151500000Y-97343500D01*
X151500000Y-98500000D01*
X152066880Y-98500000D01*
X152550000Y-98500000D01*
X152550000Y-98490000D01*
X154561101Y-98490000D01*
X154563685Y-98489500D01*
X157300500Y-98489500D01*
X157367539Y-98509185D01*
X157413294Y-98561989D01*
X157424500Y-98613500D01*
X157424500Y-98973260D01*
X157434426Y-99041391D01*
X157485803Y-99146485D01*
X157568514Y-99229196D01*
X157568515Y-99229196D01*
X157568517Y-99229198D01*
X157673607Y-99280573D01*
X157702131Y-99284729D01*
X157741739Y-99290500D01*
X157741740Y-99290500D01*
X159258261Y-99290500D01*
X159285508Y-99286530D01*
X159326393Y-99280573D01*
X159431483Y-99229198D01*
X159514198Y-99146483D01*
X159514200Y-99146477D01*
X159517077Y-99142450D01*
X159572051Y-99099326D01*
X159617997Y-99090500D01*
X160014167Y-99090500D01*
X160081206Y-99110185D01*
X160101848Y-99126819D01*
X160549540Y-99574511D01*
X160605489Y-99630460D01*
X160605491Y-99630461D01*
X160605495Y-99630464D01*
X160674004Y-99670017D01*
X160674011Y-99670021D01*
X160750438Y-99690500D01*
X160904564Y-99690500D01*
X160971603Y-99710185D01*
X161017358Y-99762989D01*
X161019121Y-99767039D01*
X161024482Y-99779981D01*
X161069058Y-99887596D01*
X161184024Y-100059657D01*
X161330342Y-100205975D01*
X161330345Y-100205977D01*
X161502402Y-100320941D01*
X161693580Y-100400130D01*
X161858795Y-100432993D01*
X161896530Y-100440499D01*
X161896534Y-100440500D01*
X161896535Y-100440500D01*
X162103466Y-100440500D01*
X162103467Y-100440499D01*
X162306420Y-100400130D01*
X162497598Y-100320941D01*
X162669655Y-100205977D01*
X162815977Y-100059655D01*
X162930941Y-99887598D01*
X163010130Y-99696420D01*
X163050500Y-99493465D01*
X163050500Y-99286535D01*
X163010130Y-99083580D01*
X162930941Y-98892402D01*
X162815977Y-98720345D01*
X162815975Y-98720342D01*
X162669657Y-98574024D01*
X162512507Y-98469021D01*
X162497598Y-98459059D01*
X162426135Y-98429458D01*
X162306420Y-98379870D01*
X162306412Y-98379868D01*
X162103469Y-98339500D01*
X162103465Y-98339500D01*
X161896535Y-98339500D01*
X161896530Y-98339500D01*
X161693587Y-98379868D01*
X161693579Y-98379870D01*
X161502403Y-98459058D01*
X161330342Y-98574024D01*
X161184024Y-98720342D01*
X161069057Y-98892404D01*
X161037070Y-98969629D01*
X160993229Y-99024032D01*
X160926934Y-99046097D01*
X160859235Y-99028818D01*
X160834828Y-99009857D01*
X160526152Y-98701181D01*
X160492667Y-98639858D01*
X160497651Y-98570166D01*
X160539523Y-98514233D01*
X160604987Y-98489816D01*
X160613833Y-98489500D01*
X160700560Y-98489500D01*
X160700562Y-98489500D01*
X160776989Y-98469021D01*
X160845511Y-98429460D01*
X160901460Y-98373511D01*
X161338152Y-97936819D01*
X161399475Y-97903334D01*
X161425833Y-97900500D01*
X162869750Y-97900500D01*
X162869751Y-97900499D01*
X162884568Y-97897552D01*
X162928229Y-97888868D01*
X162928229Y-97888867D01*
X162928231Y-97888867D01*
X162994552Y-97844552D01*
X163038867Y-97778231D01*
X163038867Y-97778229D01*
X163038868Y-97778229D01*
X163050499Y-97719752D01*
X163050500Y-97719750D01*
X163050500Y-95980249D01*
X163050499Y-95980247D01*
X163038868Y-95921770D01*
X163038867Y-95921769D01*
X162994552Y-95855447D01*
X162928230Y-95811132D01*
X162928229Y-95811131D01*
X162869752Y-95799500D01*
X162869748Y-95799500D01*
X161130252Y-95799500D01*
X161130247Y-95799500D01*
X161071770Y-95811131D01*
X161071769Y-95811132D01*
X161005447Y-95855447D01*
X160961132Y-95921769D01*
X160961131Y-95921770D01*
X160949500Y-95980247D01*
X160949500Y-97424167D01*
X160929815Y-97491206D01*
X160913181Y-97511848D01*
X160572848Y-97852181D01*
X160511525Y-97885666D01*
X160485167Y-97888500D01*
X159691886Y-97888500D01*
X159624847Y-97868815D01*
X159579092Y-97816011D01*
X159569148Y-97746853D01*
X159569182Y-97746621D01*
X159573098Y-97719748D01*
X159575500Y-97703260D01*
X159575500Y-97336740D01*
X159565573Y-97268607D01*
X159514198Y-97163517D01*
X159514196Y-97163515D01*
X159514196Y-97163514D01*
X159431485Y-97080803D01*
X159326391Y-97029426D01*
X159258261Y-97019500D01*
X159258260Y-97019500D01*
X158475833Y-97019500D01*
X158408794Y-96999815D01*
X158388152Y-96983181D01*
X158083513Y-96678542D01*
X158083511Y-96678540D01*
X158060906Y-96665489D01*
X158014991Y-96638980D01*
X158014990Y-96638979D01*
X157989513Y-96632152D01*
X157938562Y-96618500D01*
X149720562Y-96618500D01*
X149641438Y-96618500D01*
X149565010Y-96638978D01*
X149496489Y-96678540D01*
X149496486Y-96678542D01*
X149061848Y-97113181D01*
X149000525Y-97146666D01*
X148974167Y-97149500D01*
X147530247Y-97149500D01*
X147471770Y-97161131D01*
X147471769Y-97161132D01*
X147405447Y-97205447D01*
X147361132Y-97271769D01*
X147361131Y-97271770D01*
X147349500Y-97330247D01*
X146550500Y-97330247D01*
X146550500Y-95184500D01*
X146570185Y-95117461D01*
X146622989Y-95071706D01*
X146674500Y-95060500D01*
X163675500Y-95060500D01*
X163742539Y-95080185D01*
G37*
%TD.AperFunction*%
%TD*%
M02*
