%TF.GenerationSoftware,KiCad,Pcbnew,9.0.2+dfsg-1*%
%TF.CreationDate,2025-11-23T23:22:12+02:00*%
%TF.ProjectId,stm8s001j3-dev-board,73746d38-7330-4303-916a-332d6465762d,1*%
%TF.SameCoordinates,Original*%
%TF.FileFunction,Legend,Top*%
%TF.FilePolarity,Positive*%
%FSLAX46Y46*%
G04 Gerber Fmt 4.6, Leading zero omitted, Abs format (unit mm)*
G04 Created by KiCad (PCBNEW 9.0.2+dfsg-1) date 2025-11-23 23:22:12*
%MOMM*%
%LPD*%
G01*
G04 APERTURE LIST*
G04 Aperture macros list*
%AMRoundRect*
0 Rectangle with rounded corners*
0 $1 Rounding radius*
0 $2 $3 $4 $5 $6 $7 $8 $9 X,Y pos of 4 corners*
0 Add a 4 corners polygon primitive as box body*
4,1,4,$2,$3,$4,$5,$6,$7,$8,$9,$2,$3,0*
0 Add four circle primitives for the rounded corners*
1,1,$1+$1,$2,$3*
1,1,$1+$1,$4,$5*
1,1,$1+$1,$6,$7*
1,1,$1+$1,$8,$9*
0 Add four rect primitives between the rounded corners*
20,1,$1+$1,$2,$3,$4,$5,0*
20,1,$1+$1,$4,$5,$6,$7,0*
20,1,$1+$1,$6,$7,$8,$9,0*
20,1,$1+$1,$8,$9,$2,$3,0*%
G04 Aperture macros list end*
%ADD10C,0.120000*%
%ADD11RoundRect,0.225000X0.250000X-0.225000X0.250000X0.225000X-0.250000X0.225000X-0.250000X-0.225000X0*%
%ADD12R,1.700000X1.700000*%
%ADD13C,1.700000*%
%ADD14RoundRect,0.150000X-0.725000X-0.150000X0.725000X-0.150000X0.725000X0.150000X-0.725000X0.150000X0*%
%ADD15RoundRect,0.200000X0.275000X-0.200000X0.275000X0.200000X-0.275000X0.200000X-0.275000X-0.200000X0*%
%ADD16RoundRect,0.200000X-0.275000X0.200000X-0.275000X-0.200000X0.275000X-0.200000X0.275000X0.200000X0*%
%ADD17RoundRect,0.218750X-0.256250X0.218750X-0.256250X-0.218750X0.256250X-0.218750X0.256250X0.218750X0*%
G04 APERTURE END LIST*
D10*
%TO.C,C1*%
X150690000Y-99715580D02*
X150690000Y-99434420D01*
X151710000Y-99715580D02*
X151710000Y-99434420D01*
%TO.C,J2*%
X147020000Y-96820000D02*
X148400000Y-96820000D01*
X147020000Y-98200000D02*
X147020000Y-96820000D01*
X147020000Y-99470000D02*
X147020000Y-104660000D01*
X147020000Y-99470000D02*
X149780000Y-99470000D01*
X147020000Y-104660000D02*
X149780000Y-104660000D01*
X149780000Y-99470000D02*
X149780000Y-104660000D01*
%TO.C,U1*%
X155925000Y-96865000D02*
X153975000Y-96865000D01*
X155925000Y-96865000D02*
X157875000Y-96865000D01*
X155925000Y-101985000D02*
X153975000Y-101985000D01*
X155925000Y-101985000D02*
X157875000Y-101985000D01*
X153225000Y-96960000D02*
X152985000Y-96630000D01*
X153465000Y-96630000D01*
X153225000Y-96960000D01*
G36*
X153225000Y-96960000D02*
G01*
X152985000Y-96630000D01*
X153465000Y-96630000D01*
X153225000Y-96960000D01*
G37*
%TO.C,R2*%
X155977500Y-104537258D02*
X155977500Y-104062742D01*
X157022500Y-104537258D02*
X157022500Y-104062742D01*
%TO.C,R3*%
X152777500Y-104062742D02*
X152777500Y-104537258D01*
X153822500Y-104062742D02*
X153822500Y-104537258D01*
%TO.C,J1*%
X160620000Y-95470000D02*
X162000000Y-95470000D01*
X160620000Y-96850000D02*
X160620000Y-95470000D01*
X160620000Y-98120000D02*
X160620000Y-105850000D01*
X160620000Y-98120000D02*
X163380000Y-98120000D01*
X160620000Y-105850000D02*
X163380000Y-105850000D01*
X163380000Y-98120000D02*
X163380000Y-105850000D01*
%TO.C,D1*%
X150465000Y-102815000D02*
X150465000Y-105100000D01*
X151935000Y-102815000D02*
X150465000Y-102815000D01*
X151935000Y-105100000D02*
X151935000Y-102815000D01*
%TO.C,R1*%
X157977500Y-104537258D02*
X157977500Y-104062742D01*
X159022500Y-104537258D02*
X159022500Y-104062742D01*
%TD*%
%LPC*%
D11*
%TO.C,C1*%
X151200000Y-100350000D03*
X151200000Y-98800000D03*
%TD*%
D12*
%TO.C,J2*%
X148400000Y-98200000D03*
D13*
X148400000Y-100740000D03*
X148400000Y-103280000D03*
%TD*%
D14*
%TO.C,U1*%
X153350000Y-97520000D03*
X153350000Y-98790000D03*
X153350000Y-100060000D03*
X153350000Y-101330000D03*
X158500000Y-101330000D03*
X158500000Y-100060000D03*
X158500000Y-98790000D03*
X158500000Y-97520000D03*
%TD*%
D15*
%TO.C,R2*%
X156500000Y-105125000D03*
X156500000Y-103475000D03*
%TD*%
D16*
%TO.C,R3*%
X153300000Y-103475000D03*
X153300000Y-105125000D03*
%TD*%
D12*
%TO.C,J1*%
X162000000Y-96850000D03*
D13*
X162000000Y-99390000D03*
X162000000Y-101930000D03*
X162000000Y-104470000D03*
%TD*%
D17*
%TO.C,D1*%
X151200000Y-103512500D03*
X151200000Y-105087500D03*
%TD*%
D15*
%TO.C,R1*%
X158500000Y-105125000D03*
X158500000Y-103475000D03*
%TD*%
%LPD*%
M02*
